<svg width="350" height="350" viewBox="0 0 350 350" fill="none" xmlns="http://www.w3.org/2000/svg">
<mask id="path-1-inside-1_13_27" fill="white">
<path fill-rule="evenodd" clip-rule="evenodd" d="M32.2073 142.574C28.3583 142.574 25.9526 138.407 27.8771 135.074L50.7252 95.5C51.6184 93.953 53.269 93 55.0553 93H106.525C108.311 93 109.962 93.953 110.855 95.5L133.703 135.074C135.628 138.407 133.222 142.574 129.373 142.574H32.2073ZM7.66987 145.074C6.77671 143.527 6.77671 141.621 7.66987 140.074L42.065 80.5C42.9581 78.953 44.6088 78 46.3951 78H115.185C116.972 78 118.622 78.953 119.515 80.5L153.91 140.074C154.804 141.621 154.804 143.527 153.91 145.074L119.515 204.648C118.622 206.195 116.972 207.148 115.185 207.148H46.3951C44.6088 207.148 42.9581 206.195 42.065 204.648L7.66987 145.074Z"/>
</mask>
<path fill-rule="evenodd" clip-rule="evenodd" d="M32.2073 142.574C28.3583 142.574 25.9526 138.407 27.8771 135.074L50.7252 95.5C51.6184 93.953 53.269 93 55.0553 93H106.525C108.311 93 109.962 93.953 110.855 95.5L133.703 135.074C135.628 138.407 133.222 142.574 129.373 142.574H32.2073ZM7.66987 145.074C6.77671 143.527 6.77671 141.621 7.66987 140.074L42.065 80.5C42.9581 78.953 44.6088 78 46.3951 78H115.185C116.972 78 118.622 78.953 119.515 80.5L153.91 140.074C154.804 141.621 154.804 143.527 153.91 145.074L119.515 204.648C118.622 206.195 116.972 207.148 115.185 207.148H46.3951C44.6088 207.148 42.9581 206.195 42.065 204.648L7.66987 145.074Z" fill="#FC0D35"/>
<path d="M42.065 204.648L29.0746 212.148L42.065 204.648ZM119.515 204.648L132.506 212.148L119.515 204.648ZM153.91 140.074L140.92 147.574L153.91 140.074ZM153.91 145.074L140.92 137.574L153.91 145.074ZM119.515 80.5L132.506 73L119.515 80.5ZM7.66987 140.074L20.6603 147.574L7.66987 140.074ZM7.66987 145.074L-5.32051 152.574L7.66987 145.074ZM133.703 135.074L120.713 142.574L133.703 135.074ZM110.855 95.5L123.846 88L110.855 95.5ZM50.7252 95.5L37.7348 88L50.7252 95.5ZM37.7348 88L14.8868 127.574L40.8675 142.574L63.7156 103L37.7348 88ZM106.525 78H55.0553V108H106.525V78ZM146.694 127.574L123.846 88L97.8648 103L120.713 142.574L146.694 127.574ZM32.2073 157.574H129.373V127.574H32.2073V157.574ZM29.0746 73L-5.32051 132.574L20.6603 147.574L55.0553 88L29.0746 73ZM115.185 63H46.3951V93H115.185V63ZM166.901 132.574L132.506 73L106.525 88L140.92 147.574L166.901 132.574ZM132.506 212.148L166.901 152.574L140.92 137.574L106.525 197.148L132.506 212.148ZM46.3951 222.148H115.185V192.148H46.3951V222.148ZM-5.32051 152.574L29.0746 212.148L55.0553 197.148L20.6603 137.574L-5.32051 152.574ZM46.3951 192.148C49.9677 192.148 53.269 194.054 55.0553 197.148L29.0746 212.148C32.6472 218.336 39.2498 222.148 46.3951 222.148V192.148ZM106.525 197.148C108.311 194.054 111.613 192.148 115.185 192.148V222.148C122.331 222.148 128.933 218.336 132.506 212.148L106.525 197.148ZM140.92 147.574C139.134 144.48 139.134 140.668 140.92 137.574L166.901 152.574C170.474 146.386 170.474 138.762 166.901 132.574L140.92 147.574ZM115.185 93C111.613 93 108.311 91.094 106.525 88L132.506 73C128.933 66.812 122.331 63 115.185 63V93ZM-5.32051 132.574C-8.89317 138.762 -8.89316 146.386 -5.32051 152.574L20.6603 137.574C22.4466 140.668 22.4466 144.48 20.6603 147.574L-5.32051 132.574ZM55.0553 88C53.269 91.094 49.9678 93 46.3951 93V63C39.2498 63 32.6472 66.812 29.0746 73L55.0553 88ZM120.713 142.574C116.864 135.907 121.675 127.574 129.373 127.574V157.574C144.769 157.574 154.392 140.907 146.694 127.574L120.713 142.574ZM106.525 108C102.952 108 99.6511 106.094 97.8648 103L123.846 88C120.273 81.812 113.67 78 106.525 78V108ZM14.8868 127.574C7.18876 140.907 16.8112 157.574 32.2073 157.574V127.574C39.9053 127.574 44.7165 135.907 40.8675 142.574L14.8868 127.574ZM63.7156 103C61.9293 106.094 58.628 108 55.0553 108V78C47.91 78 41.3075 81.812 37.7348 88L63.7156 103Z" fill="black" mask="url(#path-1-inside-1_13_27)"/>
<mask id="path-3-inside-2_13_27" fill="white">
<path fill-rule="evenodd" clip-rule="evenodd" d="M221.08 142.574C217.231 142.574 214.825 138.407 216.75 135.074L239.598 95.5C240.491 93.953 242.142 93 243.928 93H295.398C297.184 93 298.835 93.953 299.728 95.5L322.576 135.074C324.5 138.407 322.095 142.574 318.246 142.574H221.08ZM342.783 145.074C343.676 143.527 343.676 141.621 342.783 140.074L308.388 80.5C307.495 78.953 305.844 78 304.058 78H235.268C233.481 78 231.831 78.953 230.938 80.5L196.542 140.074C195.649 141.621 195.649 143.527 196.542 145.074L230.938 204.648C231.831 206.195 233.481 207.148 235.268 207.148H304.058C305.844 207.148 307.495 206.195 308.388 204.648L342.783 145.074Z"/>
</mask>
<path fill-rule="evenodd" clip-rule="evenodd" d="M221.08 142.574C217.231 142.574 214.825 138.407 216.75 135.074L239.598 95.5C240.491 93.953 242.142 93 243.928 93H295.398C297.184 93 298.835 93.953 299.728 95.5L322.576 135.074C324.5 138.407 322.095 142.574 318.246 142.574H221.08ZM342.783 145.074C343.676 143.527 343.676 141.621 342.783 140.074L308.388 80.5C307.495 78.953 305.844 78 304.058 78H235.268C233.481 78 231.831 78.953 230.938 80.5L196.542 140.074C195.649 141.621 195.649 143.527 196.542 145.074L230.938 204.648C231.831 206.195 233.481 207.148 235.268 207.148H304.058C305.844 207.148 307.495 206.195 308.388 204.648L342.783 145.074Z" fill="#FC0D35"/>
<path d="M308.388 204.648L321.378 212.148L308.388 204.648ZM230.938 204.648L217.947 212.148L230.938 204.648ZM196.542 140.074L209.533 147.574L196.542 140.074ZM196.542 145.074L183.552 152.574L196.542 145.074ZM308.388 80.5L321.378 73L308.388 80.5ZM342.783 140.074L329.793 147.574L342.783 140.074ZM342.783 145.074L329.793 137.574L342.783 145.074ZM322.576 135.074L309.585 142.574L322.576 135.074ZM299.728 95.5L312.718 88L299.728 95.5ZM239.598 95.5L226.607 88L239.598 95.5ZM226.607 88L203.759 127.574L229.74 142.574L252.588 103L226.607 88ZM295.398 78H243.928V108H295.398V78ZM335.566 127.574L312.718 88L286.737 103L309.585 142.574L335.566 127.574ZM221.08 157.574H318.246V127.574H221.08V157.574ZM355.773 132.574L321.378 73L295.398 88L329.793 147.574L355.773 132.574ZM304.058 63H235.268V93H304.058V63ZM217.947 73L183.552 132.574L209.533 147.574L243.928 88L217.947 73ZM183.552 152.574L217.947 212.148L243.928 197.148L209.533 137.574L183.552 152.574ZM235.268 222.148H304.058V192.148H235.268V222.148ZM321.378 212.148L355.773 152.574L329.793 137.574L295.398 197.148L321.378 212.148ZM304.058 222.148C311.203 222.148 317.806 218.336 321.378 212.148L295.398 197.148C297.184 194.054 300.485 192.148 304.058 192.148V222.148ZM217.947 212.148C221.52 218.336 228.122 222.148 235.268 222.148V192.148C238.84 192.148 242.142 194.054 243.928 197.148L217.947 212.148ZM183.552 132.574C179.979 138.762 179.979 146.386 183.552 152.574L209.533 137.574C211.319 140.668 211.319 144.48 209.533 147.574L183.552 132.574ZM235.268 63C228.122 63 221.52 66.812 217.947 73L243.928 88C242.142 91.094 238.84 93 235.268 93V63ZM321.378 73C317.806 66.812 311.203 63 304.058 63V93C300.485 93 297.184 91.094 295.398 88L321.378 73ZM329.793 147.574C328.006 144.48 328.006 140.668 329.793 137.574L355.773 152.574C359.346 146.386 359.346 138.762 355.773 132.574L329.793 147.574ZM309.585 142.574C305.736 135.907 310.548 127.574 318.246 127.574V157.574C333.642 157.574 343.264 140.907 335.566 127.574L309.585 142.574ZM295.398 108C291.825 108 288.524 106.094 286.737 103L312.718 88C309.145 81.812 302.543 78 295.398 78V108ZM203.759 127.574C196.061 140.907 205.684 157.574 221.08 157.574V127.574C228.778 127.574 233.589 135.907 229.74 142.574L203.759 127.574ZM252.588 103C250.802 106.094 247.501 108 243.928 108V78C236.783 78 230.18 81.812 226.607 88L252.588 103Z" fill="black" mask="url(#path-3-inside-2_13_27)"/>
<mask id="path-5-inside-3_13_27" fill="white">
<path fill-rule="evenodd" clip-rule="evenodd" d="M126.667 207.196C122.818 207.196 120.413 203.029 122.337 199.696L145.185 160.122C146.079 158.575 147.729 157.622 149.516 157.622H200.985C202.772 157.622 204.422 158.575 205.315 160.122L228.163 199.696C230.088 203.029 227.682 207.196 223.833 207.196H126.667ZM102.13 209.696C101.237 208.149 101.237 206.243 102.13 204.696L136.525 145.122C137.418 143.575 139.069 142.622 140.855 142.622H209.645C211.432 142.622 213.082 143.575 213.976 145.122L248.371 204.696C249.264 206.243 249.264 208.149 248.371 209.696L213.976 269.27C213.082 270.817 211.432 271.77 209.645 271.77H140.855C139.069 271.77 137.418 270.817 136.525 269.27L102.13 209.696Z"/>
</mask>
<path fill-rule="evenodd" clip-rule="evenodd" d="M126.667 207.196C122.818 207.196 120.413 203.029 122.337 199.696L145.185 160.122C146.079 158.575 147.729 157.622 149.516 157.622H200.985C202.772 157.622 204.422 158.575 205.315 160.122L228.163 199.696C230.088 203.029 227.682 207.196 223.833 207.196H126.667ZM102.13 209.696C101.237 208.149 101.237 206.243 102.13 204.696L136.525 145.122C137.418 143.575 139.069 142.622 140.855 142.622H209.645C211.432 142.622 213.082 143.575 213.976 145.122L248.371 204.696C249.264 206.243 249.264 208.149 248.371 209.696L213.976 269.27C213.082 270.817 211.432 271.77 209.645 271.77H140.855C139.069 271.77 137.418 270.817 136.525 269.27L102.13 209.696Z" fill="#FC0D35"/>
<path d="M136.525 269.27L123.535 276.77L136.525 269.27ZM213.976 269.27L226.966 276.77L213.976 269.27ZM248.371 204.696L235.38 212.196L248.371 204.696ZM248.371 209.696L235.38 202.196L248.371 209.696ZM213.976 145.122L226.966 137.622L213.976 145.122ZM102.13 204.696L115.12 212.196L102.13 204.696ZM102.13 209.696L89.1397 217.196L102.13 209.696ZM228.163 199.696L215.173 207.196L228.163 199.696ZM205.315 160.122L218.306 152.622L205.315 160.122ZM145.185 160.122L132.195 152.622L145.185 160.122ZM132.195 152.622L109.347 192.196L135.328 207.196L158.176 167.622L132.195 152.622ZM200.985 142.622H149.516V172.622H200.985V142.622ZM241.154 192.196L218.306 152.622L192.325 167.622L215.173 207.196L241.154 192.196ZM126.667 222.196H223.833V192.196H126.667V222.196ZM123.535 137.622L89.1397 197.196L115.12 212.196L149.516 152.622L123.535 137.622ZM209.645 127.622H140.855V157.622H209.645V127.622ZM261.361 197.196L226.966 137.622L200.985 152.622L235.38 212.196L261.361 197.196ZM226.966 276.77L261.361 217.196L235.38 202.196L200.985 261.77L226.966 276.77ZM140.855 286.77H209.645V256.77H140.855V286.77ZM89.1397 217.196L123.535 276.77L149.516 261.77L115.12 202.196L89.1397 217.196ZM140.855 256.77C144.428 256.77 147.729 258.676 149.516 261.77L123.535 276.77C127.107 282.958 133.71 286.77 140.855 286.77V256.77ZM200.985 261.77C202.772 258.676 206.073 256.77 209.645 256.77V286.77C216.791 286.77 223.393 282.958 226.966 276.77L200.985 261.77ZM235.38 212.196C233.594 209.102 233.594 205.29 235.38 202.196L261.361 217.196C264.934 211.008 264.934 203.384 261.361 197.196L235.38 212.196ZM209.645 157.622C206.073 157.622 202.772 155.716 200.985 152.622L226.966 137.622C223.393 131.434 216.791 127.622 209.645 127.622V157.622ZM89.1397 197.196C85.567 203.384 85.567 211.008 89.1397 217.196L115.12 202.196C116.907 205.29 116.907 209.102 115.12 212.196L89.1397 197.196ZM149.516 152.622C147.729 155.716 144.428 157.622 140.855 157.622V127.622C133.71 127.622 127.107 131.434 123.535 137.622L149.516 152.622ZM215.173 207.196C211.324 200.529 216.135 192.196 223.833 192.196V222.196C239.229 222.196 248.852 205.529 241.154 192.196L215.173 207.196ZM200.985 172.622C197.413 172.622 194.111 170.716 192.325 167.622L218.306 152.622C214.733 146.434 208.131 142.622 200.985 142.622V172.622ZM109.347 192.196C101.649 205.529 111.271 222.196 126.667 222.196V192.196C134.365 192.196 139.177 200.529 135.328 207.196L109.347 192.196ZM158.176 167.622C156.389 170.716 153.088 172.622 149.516 172.622V142.622C142.37 142.622 135.768 146.434 132.195 152.622L158.176 167.622Z" fill="black" mask="url(#path-5-inside-3_13_27)"/>
</svg>
